<?xml version="1.0" encoding="UTF-8"?>
<svg version="1.1" xmlns="http://www.w3.org/2000/svg" width="810" height="430">
<path d="M0 0 C267.3 0 534.6 0 810 0 C810 141.9 810 283.8 810 430 C542.7 430 275.4 430 0 430 C0 288.1 0 146.2 0 0 Z " fill="#FDFDFD" transform="translate(0,0)"/>
<path d="M0 0 C2.64891527 1.09987923 4.1678114 2.5542407 6.20904541 4.57098389 C7.00957336 5.35559998 7.81010132 6.14021606 8.6348877 6.9486084 C9.48919373 7.80271301 10.34349976 8.65681763 11.22369385 9.5368042 C12.54696686 10.84865692 12.54696686 10.84865692 13.89697266 12.18701172 C16.23728409 14.51374591 18.56957669 16.84821286 20.90020752 19.18463135 C22.33175048 20.61361319 23.77081478 22.03453508 25.21295166 23.45281982 C27.97938903 26.17655061 30.72859886 28.91658331 33.47369385 31.6618042 C34.3360968 32.50781189 35.19849976 33.35381958 36.08703613 34.22546387 C36.87495544 35.0226886 37.66287476 35.81991333 38.47467041 36.64129639 C39.17320129 37.33777283 39.87173218 38.03424927 40.59143066 38.75183105 C42.46791791 41.4101176 42.44085331 42.66174443 42.08306885 45.8649292 C40.78238297 47.78644085 40.78238297 47.78644085 38.92102051 49.64170837 C38.22001221 50.35248032 37.51900391 51.06325226 36.79675293 51.79556274 C36.01757507 52.55990631 35.23839722 53.32424988 34.43560791 54.11175537 C33.62273315 54.92857285 32.8098584 55.74539032 31.97235107 56.58695984 C29.27645879 59.28957647 26.56301864 61.97380401 23.84869385 64.65789795 C21.9740295 66.52831351 20.10032336 68.39968992 18.22753906 70.27198792 C14.29810973 74.19678863 10.35929402 78.11196063 6.41412354 82.02093506 C1.85491664 86.53842268 -2.69211884 91.0678634 -7.23216414 95.60460299 C-11.60113142 99.97031532 -15.97583096 104.33022945 -20.35413361 108.68657875 C-22.21635616 110.53991128 -24.0774997 112.39432864 -25.93755341 114.24983788 C-28.53724871 116.84050446 -31.14350259 119.42437766 -33.75189209 122.00628662 C-34.52297302 122.77670288 -35.29405396 123.54711914 -36.08850098 124.34088135 C-37.15693237 125.39435005 -37.15693237 125.39435005 -38.24694824 126.46910095 C-38.86270596 127.08020816 -39.47846367 127.69131536 -40.11288071 128.32094097 C-44.45788029 132.03958877 -48.29097678 132.15189037 -53.8633728 132.11889648 C-54.66983919 132.12201647 -55.47630557 132.12513645 -56.30721033 132.12835097 C-59.01264058 132.13633568 -61.71784684 132.13000554 -64.42327881 132.12371826 C-66.36148714 132.12642787 -68.29969444 132.12998863 -70.23789978 132.13433838 C-75.50418379 132.14346701 -80.77038957 132.13991648 -86.03667498 132.13358021 C-91.5410639 132.12852413 -97.04544603 132.13321043 -102.54983521 132.13635254 C-111.79200445 132.13999271 -121.03414175 132.13519109 -130.27630615 132.12567139 C-140.97365298 132.11478032 -151.67092362 132.11831696 -162.36826861 132.1293242 C-171.5428335 132.13838794 -180.71737541 132.13968703 -189.89194334 132.13444686 C-195.37602003 132.13132295 -200.86006087 132.13092946 -206.34413528 132.13751984 C-211.49706164 132.14327963 -216.6498893 132.13932158 -221.80280495 132.12773132 C-223.69833398 132.12507767 -225.59387126 132.12586177 -227.48939705 132.13025665 C-230.06786399 132.13568569 -232.64601051 132.12891048 -235.22445679 132.11889648 C-236.36140077 132.12558865 -236.36140077 132.12558865 -237.52131331 132.13241601 C-242.68863059 132.09322976 -242.68863059 132.09322976 -244.91693115 129.8649292 C-245.08872167 126.97360743 -245.14922585 124.19050855 -245.10443115 121.3024292 C-245.10378662 120.50901123 -245.10314209 119.71559326 -245.10247803 118.89813232 C-245.05718637 113.00518442 -245.05718637 113.00518442 -243.91693115 111.8649292 C-242.30203595 111.83732122 -240.68585938 111.88249111 -239.0723877 111.95568848 C-238.02222977 111.99937057 -236.97207184 112.04305267 -235.89009094 112.08805847 C-234.14525673 112.16661827 -234.14525673 112.16661827 -232.36517334 112.24676514 C-219.74826524 112.75968404 -207.13615192 113.0865196 -194.51101303 113.30869675 C-186.87447565 113.44862143 -179.25149724 113.65603837 -171.62249756 114.02850342 C-162.79847444 114.44983218 -153.98595187 114.69211241 -145.15130615 114.6618042 C-144.07924266 114.65824763 -144.07924266 114.65824763 -142.98552132 114.65461922 C-123.7545099 114.49091104 -109.44264788 111.35123186 -95.15625 97.43408203 C-88.55469443 90.49855884 -82.54907063 83.12703157 -77.10620499 75.25108719 C-76.71374462 74.79365505 -76.32128426 74.33622292 -75.91693115 73.8649292 C-75.25693115 73.8649292 -74.59693115 73.8649292 -73.91693115 73.8649292 C-73.66570999 73.29035477 -73.41448883 72.71578033 -73.15565491 72.12379456 C-71.75119124 69.56269543 -70.14215584 67.80829477 -68.09735107 65.7230835 C-67.31281052 64.91932785 -66.52826996 64.1155722 -65.71995544 63.28746033 C-64.87101212 62.43001724 -64.02206879 61.57257416 -63.1473999 60.68914795 C-62.27424637 59.80459427 -61.40109283 58.92004059 -60.5014801 58.00868225 C-58.65411677 56.14243682 -56.80383508 54.27907637 -54.9508667 52.418396 C-53.04915659 50.50787223 -51.15746435 48.5882248 -49.27410889 46.65960693 C-46.55894666 43.88376539 -43.82469194 41.12815678 -41.0848999 38.37664795 C-40.24202927 37.50908371 -39.39915863 36.64151947 -38.53074646 35.74766541 C-37.73674942 34.95967056 -36.94275238 34.17167572 -36.12469482 33.35980225 C-35.43123459 32.65905075 -34.73777435 31.95829926 -34.02330017 31.23631287 C-31.91693115 29.8649292 -31.91693115 29.8649292 -29.33705139 29.99879456 C-25.83921796 31.250631 -23.5860914 33.57605899 -21.04193115 36.1774292 C-20.5314624 36.66405029 -20.02099365 37.15067139 -19.49505615 37.65203857 C-18.04974365 39.10321045 -18.04974365 39.10321045 -15.91693115 41.8649292 C-16.40145567 46.51716154 -19.72796261 49.07415099 -22.90545654 52.19403076 C-23.52983109 52.81884338 -24.15420563 53.44365601 -24.79750061 54.08740234 C-26.86283149 56.15064338 -28.93858501 58.20305561 -31.0145874 60.2555542 C-32.44870662 61.68407819 -33.88216489 63.11326601 -35.31498718 64.54309082 C-39.08792848 68.30457774 -42.86979219 72.05696875 -46.65356445 75.80755615 C-50.51304317 79.63634702 -54.36404339 83.47364441 -58.21575928 87.3102417 C-65.77452794 94.83683571 -73.34274683 102.35385075 -80.91693115 109.8649292 C-71.20075906 112.31477487 -59.90164394 113.82156751 -50.81621552 108.67493439 C-39.45190013 100.87522203 -30.12457838 90.07174606 -20.80450439 80.02484131 C-17.850274 76.87276616 -14.83189911 73.78639954 -11.80890179 70.70042896 C-8.20056442 67.01321827 -4.62385148 63.29606271 -1.0536499 59.57196045 C-0.37367132 58.86554728 0.30630726 58.1591341 1.00689125 57.43131447 C2.91370509 55.43645526 4.79726687 53.42236416 6.6741333 51.39935303 C7.24153732 50.8095314 7.80894135 50.21970978 8.39353943 49.61201477 C11.39611764 46.3589865 11.39611764 46.3589865 12.06591797 42.1247406 C10.63867989 38.84316989 8.3100538 36.69712411 5.7354126 34.3024292 C4.64484312 33.24781892 3.55435065 32.19312901 2.46392822 31.1383667 C0.74018152 29.49557827 -0.987604 27.85720281 -2.71795654 26.22137451 C-4.38981586 24.63392851 -6.0462514 23.03155619 -7.7020874 21.4274292 C-8.22392105 20.9439502 -8.7457547 20.46047119 -9.28340149 19.96234131 C-11.54647026 17.76228213 -12.83129985 16.35296056 -13.38446045 13.20037842 C-12.6549345 9.55617727 -10.25114871 7.4755125 -7.66693115 4.9899292 C-7.17579834 4.47946045 -6.68466553 3.9689917 -6.1786499 3.4430542 C-2.50983044 -0.17684767 -2.50983044 -0.17684767 0 0 Z " fill="#252122" transform="translate(655.9169311523438,232.13507080078125)"/>
<path d="M0 0 C1.58967842 -0.01929817 1.58967842 -0.01929817 3.21147156 -0.03898621 C4.37925644 -0.04279297 5.54704132 -0.04659973 6.75021362 -0.05052185 C8.58943138 -0.067826 8.58943138 -0.067826 10.46580505 -0.08547974 C13.83600833 -0.11396266 17.20596153 -0.13301522 20.57624292 -0.14569592 C22.68326387 -0.15377814 24.79026513 -0.16395889 26.89727402 -0.17471123 C33.49352122 -0.20745031 40.08972069 -0.23133938 46.68603814 -0.24352509 C54.29263936 -0.25776066 61.89830967 -0.30156093 69.50460255 -0.37102658 C75.38753471 -0.42289335 81.27020301 -0.44770513 87.15336025 -0.45234722 C90.66507519 -0.45573912 94.17584992 -0.47049378 97.68732071 -0.51362801 C101.61092869 -0.56097699 105.5333521 -0.55223994 109.45724487 -0.5388031 C111.19070412 -0.57184036 111.19070412 -0.57184036 112.95918274 -0.60554504 C119.88701766 -0.5250329 123.56580789 0.56452024 128.46407413 5.5690279 C129.22035429 6.41972748 129.22035429 6.41972748 129.99191284 7.28761292 C130.73030396 8.01883362 131.46869507 8.75005432 132.22946167 9.50343323 C132.79689087 10.11799377 133.36432007 10.73255432 133.94894409 11.36573792 C134.5863855 12.05151917 135.2238269 12.73730042 135.88058472 13.44386292 C136.515448 14.13480042 137.15031128 14.82573792 137.80441284 15.53761292 C139.10222416 16.93899341 140.40038766 18.34004784 141.69894409 19.74073792 C142.26073364 20.35078674 142.82252319 20.96083557 143.40133667 21.58937073 C144.45973989 22.71941721 145.55841142 23.81306676 146.693573 24.86598206 C147.99191284 26.28761292 147.99191284 26.28761292 148.05831909 28.58058167 C146.52654556 32.46892987 143.93757292 34.77072349 140.92941284 37.60011292 C140.36158081 38.14989807 139.79374878 38.69968323 139.20870972 39.26612854 C137.81200359 40.61588656 136.40312447 41.95302816 134.99191284 43.28761292 C131.49767914 41.87290665 130.24730961 40.44090025 128.40621948 37.19654846 C123.91559678 30.55061736 118.68074305 24.66307516 110.63518524 22.71779633 C96.27201913 20.43578526 81.31914749 21.48824166 66.84872437 21.99336243 C61.1273965 22.17198158 55.40475686 22.2401348 49.68136597 22.32081604 C41.36052044 22.45526093 33.04192834 22.62494922 24.72409058 22.88844299 C23.84894302 22.91312653 22.97379547 22.93781006 22.0721283 22.96324158 C18.21750578 22.73358475 18.21750578 22.73358475 14.99191284 24.28761292 C14.8938642 25.84149455 14.86559422 27.39983056 14.8649292 28.95680237 C14.86069946 30.47124435 14.86069946 30.47124435 14.85638428 32.01628113 C14.85840851 33.13320343 14.86043274 34.25012573 14.86251831 35.40089417 C14.86076599 36.56986237 14.85901367 37.73883057 14.85720825 38.94322205 C14.8535502 42.15801731 14.85442309 45.37277169 14.85758734 48.58756638 C14.86011142 51.94502094 14.85777326 55.3024727 14.85620117 58.65992737 C14.85437962 64.29917392 14.85678541 69.9384074 14.86154175 75.57765198 C14.86698434 82.10611551 14.86522168 88.63454782 14.85971534 95.1630106 C14.85518381 100.7587565 14.85453386 106.35449299 14.85715401 111.95024014 C14.85871656 115.29647776 14.85891115 118.64270069 14.85561752 121.98893738 C14.8530927 125.71742396 14.8569292 129.44584964 14.86251831 133.17433167 C14.86049408 134.29125397 14.85846985 135.40817627 14.85638428 136.5589447 C14.8592041 137.56857269 14.86202393 138.57820068 14.8649292 139.61842346 C14.86549474 140.94247444 14.86549474 140.94247444 14.8660717 142.29327393 C14.7712534 144.28734481 14.7712534 144.28734481 15.99191284 145.28761292 C22.0398051 145.77776009 28.0869334 145.94485102 34.15206909 146.0771637 C36.1913508 146.13355976 38.23011198 146.21508508 40.26730347 146.32325745 C52.98501875 147.34576086 52.98501875 147.34576086 64.13839722 142.29640198 C66.47377145 140.01416701 68.46769783 137.58451338 70.45968628 135.00294495 C71.29532104 134.10688538 72.13095581 133.21082581 72.99191284 132.28761292 C75.97301244 132.20966307 77.27725576 132.76737768 79.66110229 134.50270081 C80.13765259 135.00019836 80.61420288 135.49769592 81.10519409 136.01026917 C81.63048706 136.54845276 82.15578003 137.08663635 82.69699097 137.64112854 C83.22744019 138.20509338 83.7578894 138.76905823 84.30441284 139.35011292 C84.854198 139.91794495 85.40398315 140.48577698 85.97042847 141.07081604 C87.32018649 142.46752217 88.65732809 143.87640129 89.99191284 145.28761292 C85.49396784 154.79683974 78.32505483 163.31735451 68.99191284 168.28761292 C57.6355676 171.68957132 44.65133304 170.21519094 32.97842407 169.65052795 C28.59136131 169.46084263 24.20232423 169.38879383 19.81222534 169.30323792 C13.43511345 169.16119529 7.06140497 168.98137215 0.68869019 168.70265198 C-0.58414825 168.6475647 -1.85698669 168.59247742 -3.168396 168.53572083 C-6.00808716 168.28761292 -6.00808716 168.28761292 -7.00808716 167.28761292 C-7.10938105 165.16595043 -7.13886596 163.04085567 -7.14179993 160.91677856 C-7.14406548 160.24354913 -7.14633104 159.5703197 -7.14866525 158.87668937 C-7.15503253 156.60422298 -7.15417415 154.3318158 -7.15335083 152.05934143 C-7.15634062 150.43684308 -7.15974273 148.81434544 -7.16352844 147.19184875 C-7.17239091 142.77248935 -7.17470749 138.35314929 -7.17534423 133.93378186 C-7.17629145 130.25066164 -7.17996757 126.56754597 -7.18351632 122.88442749 C-7.1916694 114.19842642 -7.19409978 105.51243573 -7.19338989 96.82643127 C-7.19278885 87.85200489 -7.20334402 78.87763857 -7.21913356 69.90322739 C-7.23218791 62.21066776 -7.23757468 54.5181278 -7.23693448 46.82555717 C-7.23667888 42.22562835 -7.23956436 37.62575287 -7.25011253 33.02583504 C-7.25975824 28.701114 -7.25989711 24.37649769 -7.2525959 20.05177307 C-7.25154565 18.4610167 -7.25393886 16.87025393 -7.25995636 15.27950859 C-7.26761748 13.11469087 -7.26307107 10.95024012 -7.25532532 8.78543091 C-7.25587008 7.57180657 -7.25641485 6.35818224 -7.25697613 5.10778141 C-6.81271299 0.07382227 -4.45125162 0.03490539 0 0 Z " fill="#242021" transform="translate(460.0080871582031,158.71238708496094)"/>
<path d="M0 0 C70.75062814 -7.14134808 70.75062814 -7.14134808 99.22955704 15.70280838 C119.76785169 33.01393244 137.88476483 53.3765407 154.45068741 74.47429276 C155.02830322 75.19343102 155.60591904 75.91256927 156.20103836 76.6534996 C159.92615852 81.53578889 159.92615852 81.53578889 159.91037369 85.08263016 C158.44263795 88.34558554 156.18334638 90.67528672 153.67285538 93.15300369 C153.19461319 93.66347244 152.716371 94.17394119 152.22363663 94.69987869 C148.67132933 98.26181284 148.67132933 98.26181284 145.49632645 98.33049393 C141.75331439 96.79968844 140.65767594 94.00105037 138.88794327 90.57097244 C123.85500488 63.51128466 101.79093994 34.5396301 70.92285538 25.27800369 C37.80637828 17.25358425 1.2693972 19.57387314 -32.51464462 20.34050369 C-33.66613668 20.36599792 -34.81762874 20.39149216 -36.00401449 20.41775894 C-62.42096513 21.01696041 -88.81399407 22.02459596 -115.18755627 23.66553116 C-115.99223213 23.7140104 -116.796908 23.76248964 -117.62596798 23.81243795 C-119.11807886 23.90285565 -120.60993278 23.99766028 -122.10143471 24.0976215 C-123.75810291 24.19722129 -125.41784127 24.2436231 -127.07714462 24.27800369 C-128.63321213 22.72193619 -128.20685231 21.21842998 -128.20995712 19.05925369 C-128.21124619 18.20976151 -128.21253525 17.36026932 -128.21386337 16.48503494 C-128.20999619 15.59171463 -128.206129 14.69839432 -128.20214462 13.77800369 C-128.20601181 12.88468338 -128.209879 11.99136307 -128.21386337 11.07097244 C-128.21257431 10.22148026 -128.21128525 9.37198807 -128.20995712 8.49675369 C-128.20882919 7.71235916 -128.20770126 6.92796463 -128.20653915 6.11980057 C-128.07714462 4.27800369 -128.07714462 4.27800369 -127.07714462 3.27800369 C-124.43531825 3.14690682 -121.81843279 3.08108845 -119.17480087 3.05681229 C-117.91717941 3.03992733 -117.91717941 3.03992733 -116.63415146 3.02270126 C-114.78665557 2.998854 -112.93912742 2.97741947 -111.09157944 2.95802307 C-108.0885386 2.92589442 -105.08568587 2.8856154 -102.08275986 2.84419632 C-90.74646865 2.6972711 -79.4142737 2.64676686 -68.07714462 2.69011307 C-63.26463969 2.70156764 -58.45216247 2.70647422 -53.63964462 2.70769119 C-52.42139999 2.70894249 -51.20315536 2.71019379 -49.94799423 2.711483 C-33.15338931 2.69902399 -16.69712809 1.7506737 0 0 Z " fill="#242021" transform="translate(539.0771446228027,72.72199630737305)"/>
<path d="M0 0 C0.74598318 -0.02922592 1.49196636 -0.05845183 2.26055509 -0.08856338 C4.77495234 -0.18359788 7.28958133 -0.26366089 9.80451965 -0.34300232 C11.60359265 -0.40626628 13.40265452 -0.46984712 15.20170593 -0.53372192 C31.76913154 -1.1004107 48.34318318 -1.42310817 64.91796398 -1.68199253 C76.03991809 -1.85982405 87.14998127 -2.11045149 98.26496887 -2.54905701 C179.15760724 -5.68083863 179.15760724 -5.68083863 199.60895634 11.96335316 C208.06393722 20.06403157 215.08089882 29.3266401 220.84675598 39.50294495 C219.02787451 43.41131559 216.5278821 46.25820924 213.53425598 49.31544495 C213.06052551 49.83042542 212.58679504 50.34540588 212.09870911 50.87599182 C208.56295739 54.48913346 208.56295739 54.48913346 205.5175581 54.54786205 C201.6489384 53.03431417 199.75466695 50.14383042 197.28970337 46.95223999 C187.18965399 34.69669775 177.15861759 22.58946196 160.64502376 20.46980137 C151.54099948 19.65542237 142.40804523 19.92777583 133.28870368 20.29212928 C128.29993941 20.45818327 123.31117727 20.4479209 118.32009888 20.45822144 C108.91840662 20.50316929 99.52658107 20.69899465 90.12847692 20.95353299 C79.4129911 21.23654395 68.69766468 21.3515515 57.97914445 21.45170534 C44.91381341 21.57436262 31.8498576 21.71826161 18.78686523 21.99920654 C17.87046347 22.01863394 16.95406171 22.03806134 16.0098902 22.05807745 C11.71450932 22.1502714 7.41941589 22.24892024 3.12442017 22.35757446 C1.62848179 22.39160232 0.13254079 22.42551476 -1.36340332 22.45928955 C-2.65827321 22.49180156 -3.9531431 22.52431356 -5.28725147 22.55781078 C-8.15324402 22.50294495 -8.15324402 22.50294495 -9.15324402 21.50294495 C-9.40290969 18.36471045 -9.33846193 15.21244882 -9.34074402 12.06544495 C-9.35299011 11.18050354 -9.36523621 10.29556213 -9.37785339 9.38380432 C-9.37978699 8.53753479 -9.38172058 7.69126526 -9.38371277 6.8193512 C-9.38782166 6.04019348 -9.39193054 5.26103577 -9.39616394 4.45826721 C-8.7584567 -0.67479536 -4.0667136 0.12019738 0 0 Z " fill="#252122" transform="translate(420.1532440185547,116.49705505371094)"/>
<path d="M0 0 C0.79263496 -0.02045254 1.58526993 -0.04090508 2.40192413 -0.06197739 C36.75240083 -0.84439792 36.75240083 -0.84439792 49.08694458 9.76300049 C63.99370817 24.19703374 63.99370817 24.19703374 64.18432617 32.44067383 C62.72042433 35.80471283 60.41712954 37.98221358 57.77734375 40.4375 C56.68677427 41.49211028 55.5962818 42.54680019 54.50585938 43.6015625 C52.78211268 45.24435093 51.05432715 46.88272639 49.32397461 48.51855469 C47.65211529 50.10600069 45.99567975 51.70837301 44.33984375 53.3125 C43.8180101 53.795979 43.29617645 54.27945801 42.75852966 54.77758789 C40.49206308 56.98095027 39.21067841 58.39594402 38.64648438 61.55053711 C39.395016 65.18664403 42.00632913 67.08290293 44.6875 69.4375 C50.07757447 74.17581214 50.07757447 74.17581214 50.26171875 76.890625 C48.65248132 79.69987797 46.66162203 81.77249539 44.375 84.0625 C43.51390625 84.94292969 42.6528125 85.82335937 41.765625 86.73046875 C38.95924361 89.00961577 37.67164405 89.60660166 34.125 89.875 C32.2734375 88.82592773 32.2734375 88.82592773 30.5 87.12109375 C29.81421875 86.47253418 29.1284375 85.82397461 28.421875 85.15576172 C27.66390625 84.40311035 26.9059375 83.65045898 26.125 82.875 C25.26390625 82.03340332 24.4028125 81.19180664 23.515625 80.32470703 C20.69945627 77.54781749 17.90886478 74.74665529 15.125 71.9375 C14.14997614 70.9574469 13.1747172 69.9776276 12.19921875 68.99804688 C9.83883382 66.62597687 7.48083095 64.2515914 5.125 61.875 C8.64151617 57.56978795 12.33584077 53.63232129 16.33984375 49.7734375 C17.27248047 48.87109375 18.20511719 47.96875 19.16601562 47.0390625 C20.62307982 45.63169624 22.08404982 44.22967808 23.55786133 42.83984375 C24.99860874 41.47759632 26.41958117 40.09452896 27.83984375 38.7109375 C28.68667725 37.90188965 29.53351074 37.0928418 30.40600586 36.25927734 C32.37035404 34.01982264 32.37035404 34.01982264 32.14282227 31.32275391 C30.84105168 28.1921346 29.94854744 26.81225192 27.125 24.875 C24.14321503 24.33532011 21.22471211 24.40943666 18.203125 24.484375 C16.91314606 24.49286469 16.91314606 24.49286469 15.59710693 24.50152588 C12.85583351 24.52388049 10.11587696 24.57407398 7.375 24.625 C5.51434182 24.64506624 3.65366311 24.66331679 1.79296875 24.6796875 C-2.76352666 24.72374216 -7.31904022 24.79276246 -11.875 24.875 C-11.88530746 25.60971527 -11.89561493 26.34443054 -11.90623474 27.10140991 C-12.00411683 34.01745292 -12.10661798 40.93341362 -12.21433926 47.84930992 C-12.26955915 51.40504209 -12.32297763 54.96078251 -12.37231445 58.51660156 C-12.42908168 62.60230602 -12.49362054 66.68785525 -12.55859375 70.7734375 C-12.58366249 72.69378311 -12.58366249 72.69378311 -12.60923767 74.65292358 C-12.62918289 75.83399689 -12.64912811 77.01507019 -12.66967773 78.23193359 C-12.68522202 79.27562103 -12.7007663 80.31930847 -12.71678162 81.3946228 C-12.875 83.875 -12.875 83.875 -13.875 85.875 C-16.99992251 85.93291844 -20.12470766 85.96856746 -23.25 86 C-24.13945312 86.01675781 -25.02890625 86.03351563 -25.9453125 86.05078125 C-26.79609375 86.05722656 -27.646875 86.06367188 -28.5234375 86.0703125 C-29.30895996 86.08078613 -30.09448242 86.09125977 -30.90380859 86.10205078 C-32.875 85.875 -32.875 85.875 -34.875 83.875 C-35.07331516 81.32611876 -35.14778262 78.88589779 -35.13378906 76.3359375 C-35.1372937 75.55857239 -35.14079834 74.78120728 -35.14440918 73.98028564 C-35.15323206 71.40343368 -35.14737545 68.8268549 -35.140625 66.25 C-35.14197149 64.46402941 -35.14391189 62.67805918 -35.14642334 60.89208984 C-35.14937535 57.14612341 -35.14507449 53.40025225 -35.13574219 49.65429688 C-35.12434759 44.84537167 -35.13090666 40.03666969 -35.14288712 35.22775269 C-35.15010364 31.53896392 -35.14781875 27.85022833 -35.14263153 24.16143799 C-35.14129446 22.38795953 -35.14294476 20.61447629 -35.14759064 18.84100342 C-35.15265249 16.36522575 -35.14495063 13.8898129 -35.13378906 11.4140625 C-35.13783752 10.67633606 -35.14188599 9.93860962 -35.14605713 9.17852783 C-35.04223602 -3.21066757 -9.98148181 0.24504928 0 0 Z " fill="#252122" transform="translate(528.875,199.125)"/>
<path d="M0 0 C2.65760722 0.90748531 3.92304505 1.89828945 5.87405396 3.90031433 C6.50311646 4.53775574 7.13217896 5.17519714 7.78030396 5.83195496 C8.74323364 6.8383905 8.74323364 6.8383905 9.72561646 7.86515808 C10.35983521 8.5090448 10.99405396 9.15293152 11.64749146 9.81632996 C14.75204946 12.99375004 17.738552 16.24063834 20.6477356 19.59757996 C25.96875296 25.69914193 31.66927988 31.42070423 37.3664856 37.16862488 C38.73806657 38.55689453 40.10424169 39.95052464 41.46511841 41.34928894 C43.4474947 43.38634164 45.44574634 45.40652797 47.44827271 47.42375183 C48.05155899 48.04970749 48.65484528 48.67566315 49.27641296 49.32058716 C51.9220409 51.95316029 53.92126443 53.62937776 57.4145813 55.03923035 C61.65006322 54.69795461 63.52466331 52.39842488 66.22952271 49.39640808 C66.76407578 48.83772034 67.29862885 48.27903259 67.84938049 47.70341492 C69.5549793 45.9189687 71.23589647 44.11377681 72.91311646 42.30265808 C74.59473537 40.49249707 76.28092633 38.68851109 77.98756409 36.90190125 C79.04872098 35.79084537 80.09566656 34.66600397 81.12638855 33.5266571 C82.58328247 31.99992371 82.58328247 31.99992371 85.35061646 29.80265808 C89.24350063 29.81082001 90.24749545 30.71345354 93.24514771 33.30656433 C94.22823398 34.31604218 95.20071503 35.33594107 96.16311646 36.36515808 C96.6652063 36.8852948 97.16729614 37.40543152 97.68460083 37.94132996 C98.91590773 39.21954378 100.13455716 40.50992955 101.35061646 41.80265808 C100.0312517 45.6553701 98.47034065 48.07036317 95.62283325 50.9662323 C94.47605354 52.14172134 94.47605354 52.14172134 93.30610657 53.34095764 C92.47903702 54.17136566 91.65196747 55.00177368 90.79983521 55.85734558 C89.94887772 56.71828827 89.09792023 57.57923096 88.22117615 58.46626282 C86.42202397 60.28058602 84.61879286 62.09087221 82.8117981 63.89738464 C80.04305247 66.67271033 77.29918155 69.47113896 74.55569458 72.27140808 C72.80521398 74.03068697 71.05330835 75.78854934 69.29983521 77.54484558 C68.47883835 78.38739899 67.65784149 79.22995239 66.81196594 80.09803772 C66.03798965 80.86278412 65.26401337 81.62753052 64.46658325 82.41545105 C63.45304024 83.43540665 63.45304024 83.43540665 62.41902161 84.47596741 C60.35061646 85.80265808 60.35061646 85.80265808 57.93370056 85.83226013 C54.5286045 84.47500898 52.38629079 82.32050187 49.90530396 79.7162323 C49.38591248 79.18778717 48.866521 78.65934204 48.33139038 78.11488342 C47.20789646 76.96951646 46.08899226 75.81963321 44.97421265 74.66578293 C43.20990723 72.84109875 41.4325252 71.03014264 39.65090942 69.22236633 C34.58952604 64.08149976 29.55403147 58.91553399 24.52444458 53.74357605 C21.44492375 50.57875582 18.35101818 47.42858338 15.24813843 44.28667068 C14.06851355 43.08588062 12.89475844 41.87929533 11.72702026 40.6669426 C10.09665848 38.97436983 8.44881262 37.30083734 6.79592896 35.6302948 C6.31682068 35.12333069 5.8377124 34.61636658 5.34408569 34.09403992 C3.84508008 32.53543889 3.84508008 32.53543889 1.35061646 30.80265808 C-2.89873761 30.88770825 -4.83204132 32.5570995 -7.74679565 35.57513428 C-8.23027466 36.0949437 -8.71375366 36.61475311 -9.21188354 37.15031433 C-10.26649382 38.24088381 -11.32118373 39.33137628 -12.37594604 40.42179871 C-14.01873448 42.1455454 -15.65710994 43.87333093 -17.29293823 45.60368347 C-18.88038423 47.27554279 -20.48275655 48.93197833 -22.08688354 50.58781433 C-22.57036255 51.10964798 -23.05384155 51.63148163 -23.55197144 52.16912842 C-25.75242114 54.4325989 -27.16017214 55.71722314 -30.31393433 56.26799011 C-33.94710946 55.54408965 -36.03433396 53.18096314 -38.52438354 50.61515808 C-39.03485229 50.13240417 -39.54532104 49.64965027 -40.07125854 49.15226746 C-41.51657104 47.69718933 -41.51657104 47.69718933 -43.64938354 44.80265808 C-43.4113267 40.54641042 -41.87977382 38.52276113 -38.94332886 35.54728699 C-38.15871277 34.74360687 -37.37409668 33.93992676 -36.56570435 33.1118927 C-35.71159973 32.2596109 -34.85749512 31.4073291 -33.97750854 30.52922058 C-33.10294006 29.64608185 -32.22837158 28.76294312 -31.32730103 27.8530426 C-29.00240723 25.51372793 -26.66747039 23.18497286 -24.3296814 20.85856628 C-22.89910136 19.42737577 -21.47868158 17.98684881 -20.06149292 16.54240417 C-17.34034715 13.77242948 -14.59972255 11.02331641 -11.85250854 8.27922058 C-11.00650085 7.4147934 -10.16049316 6.55036621 -9.28884888 5.65974426 C-8.49162415 4.87497711 -7.69439941 4.09020996 -6.87301636 3.28166199 C-6.17653992 2.5839267 -5.48006348 1.88619141 -4.76248169 1.16731262 C-2.64938354 -0.19734192 -2.64938354 -0.19734192 0 0 Z " fill="#262223" transform="translate(656.6493835449219,173.1973419189453)"/>
<path d="M0 0 C0.78503906 0.00773438 1.57007813 0.01546875 2.37890625 0.0234375 C3.55646484 0.01183594 3.55646484 0.01183594 4.7578125 0 C10.62559838 0.02012963 10.62559838 0.02012963 12.87890625 2.2734375 C13.12779522 5.093606 13.12779522 5.093606 13.12614441 8.77125549 C13.12855882 9.44604492 13.13097324 10.12083434 13.13346082 10.81607193 C13.13911784 13.08784617 13.13041983 15.3593417 13.12182617 17.63110352 C13.12289855 19.25537187 13.12483657 20.87963985 13.12757874 22.50390625 C13.13243693 26.92317309 13.12475958 31.34233937 13.11462569 35.76159406 C13.10586235 40.37759623 13.10760229 44.99359509 13.10798645 49.60960388 C13.10704911 57.36141652 13.09835528 65.11319008 13.0847168 72.86499023 C13.06898501 81.84001034 13.06371884 90.81498763 13.06445235 99.79002053 C13.06506173 108.40882181 13.05996491 117.02760909 13.05166054 125.64640617 C13.04812092 129.32144213 13.04629632 132.99647312 13.04576683 136.6715107 C13.04476565 140.99458266 13.03868753 145.31761838 13.02860069 149.64067841 C13.02566862 151.23185187 13.02445174 152.82302949 13.02502823 154.41420555 C13.02551549 156.57704386 13.01989737 158.73977913 13.01261902 160.90260315 C13.01094317 162.11585046 13.00926733 163.32909777 13.0075407 164.57911015 C12.87890625 167.2734375 12.87890625 167.2734375 11.87890625 168.2734375 C10.4754189 168.37203881 9.06710148 168.40422687 7.66015625 168.40625 C6.38591797 168.40818359 6.38591797 168.40818359 5.0859375 168.41015625 C4.19261719 168.40628906 3.29929687 168.40242187 2.37890625 168.3984375 C1.03892578 168.40423828 1.03892578 168.40423828 -0.328125 168.41015625 C-1.17761719 168.40886719 -2.02710938 168.40757812 -2.90234375 168.40625 C-3.68673828 168.40512207 -4.47113281 168.40399414 -5.27929688 168.40283203 C-7.12109375 168.2734375 -7.12109375 168.2734375 -8.12109375 167.2734375 C-8.22238764 165.15177501 -8.25187256 163.02668025 -8.25480652 160.90260315 C-8.25707208 160.22937372 -8.25933763 159.55614428 -8.26167184 158.86251396 C-8.26803913 156.59004756 -8.26718074 154.31764039 -8.26635742 152.04516602 C-8.26934721 150.42266766 -8.27274932 148.80017003 -8.27653503 147.17767334 C-8.2853975 142.75831394 -8.28771408 138.33897387 -8.28835082 133.91960645 C-8.28929804 130.23648622 -8.29297416 126.55337055 -8.29652292 122.87025207 C-8.30467599 114.18425101 -8.30710637 105.49826031 -8.30639648 96.81225586 C-8.30579544 87.83782947 -8.31635061 78.86346315 -8.33214015 69.88905197 C-8.34519451 62.19649234 -8.35058127 54.50395239 -8.34994107 46.81138176 C-8.34968547 42.21145294 -8.35257096 37.61157746 -8.36311913 33.01165962 C-8.37276483 28.68693859 -8.3729037 24.36232227 -8.36560249 20.03759766 C-8.36455224 18.44684128 -8.36694545 16.85607851 -8.37296295 15.26533318 C-8.38062407 13.10051546 -8.37607766 10.93606471 -8.36833191 8.77125549 C-8.36887668 7.55763116 -8.36942144 6.34400682 -8.36998272 5.093606 C-7.88311321 -0.42312723 -4.83151699 0.01657467 0 0 Z " fill="#231F20" transform="translate(419.12109375,158.7265625)"/>
<path d="M0 0 C5.69644823 2.95104809 8.17476855 6.87304794 10.36038208 12.8609314 C11.63392488 17.74224796 11.44665422 22.72317374 11.43359375 27.73828125 C11.4388356 28.92165573 11.44407745 30.10503021 11.44947815 31.32426453 C11.45588059 33.81960264 11.45458451 36.31497101 11.44604492 38.81030273 C11.43755016 42.60260552 11.46629998 46.39339315 11.49804688 50.18554688 C11.49965961 52.61979122 11.49907997 55.0540382 11.49609375 57.48828125 C11.50732773 58.60946854 11.51856171 59.73065582 11.53013611 60.88581848 C11.46294366 68.5820045 10.61966641 76.80060662 5.6235199 83.02827454 C-0.17490693 88.23934252 -6.55443519 88.78386948 -14.02734375 88.6171875 C-18.3745964 88.17160838 -21.63031997 87.13616706 -25 84.3125 C-28.99116528 79.26367592 -31.11564629 74.96106757 -31.19287109 68.53686523 C-31.20893402 67.3247789 -31.22499695 66.11269257 -31.24154663 64.86387634 C-31.28600066 59.2981686 -31.32753078 53.73259136 -31.35009766 48.16674805 C-31.36339196 45.23446136 -31.39115704 42.30287805 -31.43212891 39.37084961 C-31.48171937 35.82173317 -31.50625155 32.27325061 -31.51332474 28.72380257 C-31.5232225 26.72696991 -31.5574088 24.73030465 -31.59213257 22.73374939 C-31.57460222 15.14258147 -30.88189388 9.35122262 -26 3.3125 C-18.92667382 -3.03900275 -8.58363401 -3.53611501 0 0 Z " fill="#292526" transform="translate(274,77.6875)"/>
<path d="M0 0 C4.33445054 3.88885282 7.81399659 7.63726284 8.14717102 13.66069031 C8.16193733 15.26663811 8.16193733 15.26663811 8.17700195 16.9050293 C8.19625481 18.72788704 8.19625481 18.72788704 8.21589661 20.58757019 C8.22328354 21.90316422 8.23067047 23.21875824 8.23828125 24.57421875 C8.24235678 25.24550119 8.2464323 25.91678364 8.25063133 26.60840797 C8.27147792 30.16430984 8.28578342 33.72017333 8.29516602 37.27612305 C8.30620344 40.93335729 8.34057537 44.58997856 8.38033772 48.24699688 C8.40659885 51.07217978 8.41486637 53.89721901 8.41844749 56.7225132 C8.4256348 58.7209963 8.45203604 60.71938082 8.47883606 62.71769714 C8.46160982 69.9660313 7.99472834 74.87646271 4 81 C-1.07361605 85.94352333 -5.88291136 87.29850012 -12.875 87.375 C-18.92028444 87.28014721 -22.29104468 86.78763798 -27 83 C-31.68504269 78.06171176 -33.2424253 73.59834654 -33.29052734 66.85205078 C-33.30328705 65.63373566 -33.31604675 64.41542053 -33.32919312 63.16018677 C-33.33141876 61.85177826 -33.33364441 60.54336975 -33.3359375 59.1953125 C-33.34237095 57.82917137 -33.34909972 56.4630316 -33.35610962 55.09689331 C-33.36806233 52.23725187 -33.37179252 49.37773105 -33.37060547 46.51806641 C-33.37040238 42.86747212 -33.39770219 39.21765716 -33.43214989 35.56724739 C-33.4544712 32.7463735 -33.45844143 29.92568565 -33.45738602 27.10473251 C-33.46086997 25.10899839 -33.48249901 23.11332234 -33.50448608 21.1177063 C-33.46572376 13.40324287 -33.10992322 8.31200727 -27.62338257 2.55569458 C-19.8860267 -4.50939586 -9.01552381 -4.90289667 0 0 Z " fill="#242021" transform="translate(194,178)"/>
<path d="M0 0 C5.94 0 11.88 0 18 0 C18.37511719 1.52367187 18.75023437 3.04734375 19.13671875 4.6171875 C21.94363951 15.96286261 24.83280225 27.27039315 28.01953125 38.515625 C28.71855538 40.99980636 29.37409869 43.49639474 30 46 C30.33 30.82 30.66 15.64 31 0 C35.29 0 39.58 0 44 0 C44 29.04 44 58.08 44 88 C39.05 88 34.1 88 29 88 C28.54109375 86.15277344 28.0821875 84.30554688 27.609375 82.40234375 C23.8079445 67.05124587 23.8079445 67.05124587 19.8125 51.75 C17.78272611 44.19084207 15.89830963 36.59323852 14 29 C13.67 48.47 13.34 67.94 13 88 C8.71 88 4.42 88 0 88 C0 58.96 0 29.92 0 0 Z " fill="#2D292A" transform="translate(140,276)"/>
<path d="M0 0 C26 0 26 0 35 4 C40.72008012 9.86308212 40.24082527 15.56685125 40.3125 23.3125 C40.34150391 24.34568359 40.37050781 25.37886719 40.40039062 26.44335938 C40.45168852 32.59516113 40.22195653 36.37373087 36 41 C33.75 41.875 33.75 41.875 32 42 C32 42.66 32 43.32 32 44 C32.763125 44.226875 33.52625 44.45375 34.3125 44.6875 C37.61208893 46.29892715 38.43956823 47.72309327 40 51 C41.25342729 54.7904255 41.22218731 58.65632412 41.31640625 62.609375 C41.33718735 63.33618469 41.35796844 64.06299438 41.37937927 64.81182861 C41.44455512 67.12445991 41.5036104 69.43720093 41.5625 71.75 C41.60571566 73.32162575 41.64933092 74.89324056 41.69335938 76.46484375 C41.80020356 80.30978453 41.90156024 84.15483524 42 88 C39.68756208 88.02685412 37.3750373 88.04632841 35.0625 88.0625 C33.77472656 88.07410156 32.48695313 88.08570313 31.16015625 88.09765625 C28 88 28 88 27 87 C26.86543554 84.67171308 26.79629459 82.33959954 26.75390625 80.0078125 C26.720964 78.56640026 26.68775242 77.12499416 26.65429688 75.68359375 C26.60688759 73.40352669 26.56247388 71.12348385 26.52319336 68.84326172 C26.48347127 66.64784308 26.43192232 64.45294467 26.37890625 62.2578125 C26.3538501 60.9392627 26.32879395 59.62071289 26.30297852 58.26220703 C26.24731713 54.85598351 26.24731713 54.85598351 24 52 C20.7 51.67 17.4 51.34 14 51 C14 63.21 14 75.42 14 88 C9.38 88 4.76 88 0 88 C0 58.96 0 29.92 0 0 Z " fill="#282425" transform="translate(294,77)"/>
<path d="M0 0 C25 0 25 0 34 3 C40.30353018 9.30353018 40.23080953 14.38748907 40.3125 22.8125 C40.34150391 23.79798828 40.37050781 24.78347656 40.40039062 25.79882812 C40.45335604 31.8654052 40.08476218 35.40370222 36 40 C33.75 41.375 33.75 41.375 32 42 C32 42.66 32 43.32 32 44 C32.598125 44.0825 33.19625 44.165 33.8125 44.25 C36.77737519 45.26652864 37.45837105 46.26711232 39 49 C41.59648133 56.81850909 41.44741859 64.84790324 41.625 73 C41.66324966 74.45705282 41.70230527 75.91408471 41.7421875 77.37109375 C41.83892061 80.91394394 41.91908132 84.45661346 42 88 C37.38 88 32.76 88 28 88 C26.59509849 85.19019698 26.81796854 82.77620225 26.75390625 79.63671875 C26.72103516 78.35732422 26.68816406 77.07792969 26.65429688 75.75976562 C26.60699339 73.72571558 26.56258113 71.69168998 26.52319336 69.6574707 C26.48326787 67.69203709 26.43121794 65.7268617 26.37890625 63.76171875 C26.3538501 62.58569092 26.32879395 61.40966309 26.30297852 60.19799805 C26.11418475 56.60356732 26.11418475 56.60356732 24 52 C20.37 51.34 16.74 50.68 13 50 C13 62.21 13 74.42 13 87 C8.71 87 4.42 87 0 87 C0 58.29 0 29.58 0 0 Z " fill="#252122" transform="translate(40,276)"/>
<path d="M0 0 C27 0 27 0 35 4 C40.45388248 9.73356876 40.20926876 14.81286093 40.25 22.3125 C40.270625 23.25029297 40.29125 24.18808594 40.3125 25.15429688 C40.35028771 31.85689232 39.49797849 36.28790906 34.8125 41.375 C33.9153125 42.179375 33.9153125 42.179375 33 43 C33.78375 43.7425 34.5675 44.485 35.375 45.25 C39.55961349 49.6338808 40.24716321 52.44462202 40.37890625 58.48828125 C40.41306641 59.75220703 40.44722656 61.01613281 40.48242188 62.31835938 C40.50884766 63.63642578 40.53527344 64.95449219 40.5625 66.3125 C40.62279412 68.91284412 40.68648956 71.51311204 40.75390625 74.11328125 C40.77783447 75.26610596 40.8017627 76.41893066 40.82641602 77.60668945 C41.00615487 81.1203186 41.45159814 84.52641985 42 88 C39.68756208 88.02685412 37.3750373 88.04632841 35.0625 88.0625 C33.77472656 88.07410156 32.48695313 88.08570313 31.16015625 88.09765625 C28 88 28 88 27 87 C26.86551101 84.7564361 26.79631147 82.5089099 26.75390625 80.26171875 C26.72095611 78.87043669 26.68774467 77.47916081 26.65429688 76.08789062 C26.6069509 73.88912381 26.56255155 71.6903799 26.52319336 69.49145508 C26.48337426 67.37293611 26.43184112 65.25494495 26.37890625 63.13671875 C26.3538501 61.86530029 26.32879395 60.59388184 26.30297852 59.28393555 C26.17733333 55.74941544 26.17733333 55.74941544 24 52 C20.37 51.34 16.74 50.68 13 50 C13 62.21 13 74.42 13 87 C8.71 87 4.42 87 0 87 C0 58.29 0 29.58 0 0 Z " fill="#242021" transform="translate(293,276)"/>
<path d="M0 0 C5.61 0 11.22 0 17 0 C19.12513405 6.15937837 20.92864794 12.30287554 22.48046875 18.62890625 C22.77080994 19.79480286 22.77080994 19.79480286 23.0670166 20.98425293 C23.77775269 23.84269968 24.4822794 26.7026875 25.1875 29.5625 C26.775625 35.976875 28.36375 42.39125 30 49 C30.33 32.83 30.66 16.66 31 0 C34.96 0 38.92 0 43 0 C43 29.04 43 58.08 43 88 C38.05 88 33.1 88 28 88 C26.06400405 80.33345603 24.15345911 72.66357838 22.31640625 64.97265625 C22.01742432 63.72315186 21.71844238 62.47364746 21.41040039 61.1862793 C20.81714446 58.7026863 20.22636358 56.21850037 19.63842773 53.73364258 C19.35555908 52.5505249 19.07269043 51.36740723 18.78125 50.1484375 C18.53439453 49.10864746 18.28753906 48.06885742 18.03320312 46.99755859 C16.47439305 40.96637804 14.71133905 34.98968666 13 29 C12.67 48.14 12.34 67.28 12 87 C8.04 87 4.08 87 0 87 C0 58.29 0 29.58 0 0 Z " fill="#252122" transform="translate(194,276)"/>
<path d="M0 0 C5.94 0 11.88 0 18 0 C19.2283733 4.74610481 20.45566987 9.49246414 21.68041992 14.23950195 C22.09583697 15.84838058 22.5118352 17.45710928 22.9284668 19.06567383 C23.53333637 21.40144576 24.1359886 23.73778118 24.73828125 26.07421875 C24.91966141 26.77270432 25.10104156 27.47118988 25.28791809 28.19084167 C26.98044138 34.77192951 28.47021261 41.37092132 30 48 C30.33 32.16 30.66 16.32 31 0 C34.96 0 38.92 0 43 0 C43 28.71 43 57.42 43 87 C38.38 87 33.76 87 29 87 C26.19003686 78.36196515 23.92203493 69.72502449 21.86108398 60.88427734 C20.3596325 54.45674785 18.73623518 48.08138949 16.9921875 41.71484375 C15.5975562 36.49321239 14.31082441 31.24329762 13 26 C12.67 46.13 12.34 66.26 12 87 C8.04 87 4.08 87 0 87 C0 58.29 0 29.58 0 0 Z " fill="#242021" transform="translate(336,177)"/>
<path d="M0 0 C4.29 0 8.58 0 13 0 C13 11.55 13 23.1 13 35 C17.95 35 22.9 35 28 35 C28 23.45 28 11.9 28 0 C32.62 0 37.24 0 42 0 C42 28.71 42 57.42 42 87 C37.38 87 32.76 87 28 87 C28 74.13 28 61.26 28 48 C23.05 48 18.1 48 13 48 C13 60.87 13 73.74 13 87 C8.71 87 4.42 87 0 87 C0 58.29 0 29.58 0 0 Z " fill="#252122" transform="translate(260,177)"/>
<path d="M0 0 C4.29 0 8.58 0 13 0 C13.01981934 2.12985352 13.03963867 4.25970703 13.06005859 6.45410156 C13.12696434 13.4910084 13.20460388 20.52776731 13.28752708 27.56450272 C13.33747375 31.83089191 13.38380392 36.09725653 13.421875 40.36376953 C13.45874843 44.48116346 13.50511394 48.59835107 13.55806351 52.71556854 C13.57659653 54.28639863 13.59170854 55.85727293 13.60334396 57.42816925 C13.62022528 59.62843453 13.64926417 61.82822844 13.68115234 64.02832031 C13.69447601 65.28074524 13.70779968 66.53317017 13.7215271 67.82354736 C13.98256384 70.80111125 14.43232787 72.4978752 16 75 C17.27875 75.061875 18.5575 75.12375 19.875 75.1875 C20.59429687 75.22230469 21.31359375 75.25710938 22.0546875 75.29296875 C22.69664063 75.19628906 23.33859375 75.09960938 24 75 C26.45531647 71.31702529 26.2728067 69.44696039 26.31884766 65.05004883 C26.32889328 64.34735367 26.3389389 63.64465851 26.34928894 62.92066956 C26.38016427 60.59946506 26.39716787 58.27837613 26.4140625 55.95703125 C26.43277068 54.34705101 26.45234383 52.73708061 26.4727478 51.12712097 C26.52411211 46.89065345 26.56371473 42.65415412 26.60089111 38.4175415 C26.64090388 34.0940359 26.69200864 29.77066308 26.7421875 25.44726562 C26.83899774 16.96492768 26.92236099 8.48253511 27 0 C31.62 0 36.24 0 41 0 C41.09067735 9.21491161 41.16393182 18.42952276 41.20724869 27.64478111 C41.22804759 31.92465277 41.2562227 36.20420109 41.30175781 40.48388672 C41.34549267 44.62066411 41.36919487 48.75713218 41.37950897 52.89412308 C41.38685112 54.46566252 41.40118766 56.03718667 41.42292023 57.60859299 C41.672995 76.45481894 41.672995 76.45481894 35.62310791 83.63388062 C30.05847798 88.70824726 23.99027367 89.46408722 16.75390625 89.31640625 C11.24497951 88.68346573 7.45475054 86.49303345 3.625 82.5625 C0.45311228 77.56067705 -0.2887152 73.4076702 -0.22705078 67.54760742 C-0.22734283 66.8153595 -0.22763489 66.08311157 -0.22793579 65.32867432 C-0.2265482 62.92081641 -0.21101418 60.51327225 -0.1953125 58.10546875 C-0.19158033 56.43109811 -0.18873432 54.75672529 -0.18673706 53.08235168 C-0.17911663 48.68468144 -0.15948184 44.28714421 -0.1373291 39.88952637 C-0.11683638 35.39837442 -0.10772802 30.90720089 -0.09765625 26.41601562 C-0.0762344 17.61061618 -0.04211772 8.80532466 0 0 Z " fill="#282526" transform="translate(90,276)"/>
<path d="M0 0 C4.57848724 2.09376741 6.9803638 4.82183395 9.37109375 9.31640625 C10.27348122 12.02356867 10.48960677 13.55417393 10.46875 16.328125 C10.46552734 17.08544922 10.46230469 17.84277344 10.45898438 18.62304688 C10.44641602 19.80157227 10.44641602 19.80157227 10.43359375 21.00390625 C10.42908203 21.80119141 10.42457031 22.59847656 10.41992188 23.41992188 C10.40815225 25.38544882 10.39021723 27.3509371 10.37109375 29.31640625 C6.08109375 29.31640625 1.79109375 29.31640625 -2.62890625 29.31640625 C-2.66628906 28.25679687 -2.70367187 27.1971875 -2.7421875 26.10546875 C-2.80783883 24.71741201 -2.87428646 23.32939276 -2.94140625 21.94140625 C-2.96396484 21.24273437 -2.98652344 20.5440625 -3.00976562 19.82421875 C-3.09874921 17.54351684 -3.09874921 17.54351684 -3.62890625 14.31640625 C-7.08136449 12.01476743 -8.57629338 11.97150303 -12.62890625 12.31640625 C-15.28499379 14.97249379 -14.88200887 16.21945484 -14.88769531 19.92773438 C-14.89399963 21.10235229 -14.90030396 22.27697021 -14.90679932 23.48718262 C-14.90275085 24.76113892 -14.89870239 26.03509521 -14.89453125 27.34765625 C-14.89740143 29.30064636 -14.89740143 29.30064636 -14.90032959 31.29309082 C-14.90328016 34.05042253 -14.89898549 36.80762474 -14.88964844 39.56494141 C-14.87825378 43.10267698 -14.88481363 46.64010912 -14.89679337 50.17783356 C-14.90575019 53.54696559 -14.89948265 56.91601559 -14.89453125 60.28515625 C-14.89857971 61.55911255 -14.90262817 62.83306885 -14.90679932 64.14562988 C-14.900495 65.3202478 -14.89419067 66.49486572 -14.88769531 67.70507812 C-14.88610413 68.74273315 -14.88451294 69.78038818 -14.88287354 70.8494873 C-14.87289647 73.49306658 -14.87289647 73.49306658 -12.62890625 75.31640625 C-8.5291285 75.81049656 -8.5291285 75.81049656 -4.96948242 74.0612793 C-3.3329288 71.93116661 -3.21164427 70.74961837 -3.1171875 68.0859375 C-3.08173828 67.28349609 -3.04628906 66.48105469 -3.00976562 65.65429688 C-2.98720703 64.82091797 -2.96464844 63.98753906 -2.94140625 63.12890625 C-2.90724609 62.28392578 -2.87308594 61.43894531 -2.83789062 60.56835938 C-2.75549154 58.48483976 -2.6905198 56.40064409 -2.62890625 54.31640625 C1.66109375 54.31640625 5.95109375 54.31640625 10.37109375 54.31640625 C10.47990469 57.48401349 10.55879004 60.64781746 10.62109375 63.81640625 C10.67136719 65.14671875 10.67136719 65.14671875 10.72265625 66.50390625 C10.8223834 73.2853523 9.68409476 78.83222171 4.88745117 83.87670898 C0.06606182 88.08228457 -3.70090935 88.51162688 -9.94140625 88.62890625 C-11.23691406 88.66628906 -12.53242188 88.70367187 -13.8671875 88.7421875 C-19.27291928 88.13032378 -22.25374242 85.80616706 -25.87890625 81.87890625 C-28.98278848 77.33393585 -29.88034317 73.6508761 -29.91943359 68.16845703 C-29.9321933 66.95014191 -29.944953 65.73182678 -29.95809937 64.47659302 C-29.96032501 63.16818451 -29.96255066 61.859776 -29.96484375 60.51171875 C-29.9712772 59.14557762 -29.97800597 57.77943785 -29.98501587 56.41329956 C-29.99696858 53.55365812 -30.00069877 50.6941373 -29.99951172 47.83447266 C-29.99930863 44.18387837 -30.02660844 40.53406341 -30.06105614 36.88365364 C-30.08337745 34.06277975 -30.08734768 31.2420919 -30.08629227 28.42113876 C-30.08977622 26.42540464 -30.11140526 24.42972859 -30.13339233 22.43411255 C-30.09344614 14.48403616 -29.5658455 9.51706392 -23.99609375 3.57421875 C-16.95506677 -1.77106352 -8.57384507 -2.22945451 0 0 Z " fill="#282425" transform="translate(240.62890625,176.68359375)"/>
<path d="M0 0 C1.19367188 -0.01675781 2.38734375 -0.03351563 3.6171875 -0.05078125 C9.11386928 0.51847421 12.95694425 2.53451234 16.4375 6.8125 C17.17419922 7.69421875 17.17419922 7.69421875 17.92578125 8.59375 C21.33274015 13.47668783 20.18592392 19.64657571 20.125 25.3125 C15.835 25.3125 11.545 25.3125 7.125 25.3125 C6.96223958 22.7734375 6.79947917 20.234375 6.63671875 17.6953125 C6.3367961 14.95028399 6.3367961 14.95028399 3.125 13.3125 C-1.21670904 13.4056435 -1.21670904 13.4056435 -4.875 15.3125 C-5.5380977 20.88904294 -5.37989787 26.16796999 -2.6015625 31.125 C0.25632589 34.74585407 3.73436676 37.6846794 7.18530273 40.72973633 C13.76617862 46.60455363 19.81224224 53.12892463 20.36328125 62.26171875 C20.3938317 63.84104412 20.41834675 65.4204953 20.4375 67 C20.46650391 67.77794922 20.49550781 68.55589844 20.52539062 69.35742188 C20.5883874 75.1676625 19.34650098 79.44903104 16.125 84.3125 C11.31683214 89.12066786 6.40178338 90.41187362 -0.25 90.6875 C-6.9568084 90.55062636 -11.51662495 88.67087505 -16.25 83.9375 C-20.44766505 77.15665646 -20.0482967 71.11085167 -19.875 63.3125 C-15.585 63.3125 -11.295 63.3125 -6.875 63.3125 C-6.6796875 66.11197917 -6.484375 68.91145833 -6.2890625 71.7109375 C-6.11136036 74.46758879 -6.11136036 74.46758879 -3.875 76.3125 C0.77694714 76.65466235 0.77694714 76.65466235 5.125 75.3125 C6.85258787 70.1297364 6.8836767 65.36631069 4.6875 60.375 C1.82086066 55.17409719 -2.571348 51.32201751 -6.875 47.3125 C-13.21324919 41.2690531 -19.34086667 34.85879139 -20.2109375 25.82421875 C-20.35295392 11.92081122 -20.35295392 11.92081122 -15.875 6.3125 C-10.8182526 1.50858997 -6.9556145 0.02243747 0 0 Z " fill="#272324" transform="translate(360.875,274.6875)"/>
<path d="M0 0 C2.37946825 2.10042613 4.26133748 4.34925222 6 7 C6.57041016 7.82951172 6.57041016 7.82951172 7.15234375 8.67578125 C8.48063452 12.31786885 8.20780212 15.9092555 8.125 19.75 C8.11597656 20.54277344 8.10695312 21.33554688 8.09765625 22.15234375 C8.07417012 24.10169281 8.03830137 26.05088575 8 28 C3.71 28 -0.58 28 -5 28 C-5.03738281 27.02417969 -5.07476562 26.04835937 -5.11328125 25.04296875 C-5.17902344 23.77066406 -5.24476563 22.49835938 -5.3125 21.1875 C-5.37050781 19.92292969 -5.42851562 18.65835938 -5.48828125 17.35546875 C-5.73304116 14.07481317 -5.73304116 14.07481317 -7.35546875 12.078125 C-9.9871127 10.35286673 -11.9488086 10.55503459 -15 11 C-17.97714847 14.0203573 -18.37779369 16.27735409 -18.38818359 20.43945312 C-18.39764008 21.52738159 -18.40709656 22.61531006 -18.4168396 23.73620605 C-18.40773056 25.49100281 -18.40773056 25.49100281 -18.3984375 27.28125 C-18.40130768 28.48688599 -18.40417786 29.69252197 -18.40713501 30.93469238 C-18.40917619 33.48332184 -18.40364264 36.03196693 -18.39111328 38.58056641 C-18.37506144 42.48505635 -18.39096126 46.38851106 -18.41015625 50.29296875 C-18.40817383 52.76823146 -18.40433018 55.24349352 -18.3984375 57.71875 C-18.40451019 58.8886145 -18.41058289 60.058479 -18.4168396 61.26379395 C-18.40738312 62.35172241 -18.39792664 63.43965088 -18.38818359 64.56054688 C-18.38579681 65.5166687 -18.38341003 66.47279053 -18.38095093 67.45788574 C-17.93037282 70.46462744 -17.13224898 71.85186522 -15 74 C-11.87376745 74.31900332 -9.82883747 74.41441874 -7 73 C-5.76240177 69.28720531 -5.64391103 65.68693654 -5.4375 61.8125 C-5.39431641 61.06291016 -5.35113281 60.31332031 -5.30664062 59.54101562 C-5.20077315 57.69421625 -5.0999024 55.84713166 -5 54 C-0.71 54 3.58 54 8 54 C8.10890711 57.00099588 8.18773555 59.99796378 8.25 63 C8.28351563 63.83917969 8.31703125 64.67835938 8.3515625 65.54296875 C8.45434402 72.17237675 7.19312553 77.63768138 2.51635742 82.56225586 C-2.30772518 86.76421307 -6.07135338 87.19520842 -12.3125 87.3125 C-13.60800781 87.34988281 -14.90351563 87.38726562 -16.23828125 87.42578125 C-22.07340004 86.76531609 -26.3116754 83.47867987 -30 79 C-31.66960643 74.80392141 -32.25827752 71.25526885 -32.29052734 66.75439453 C-32.30328705 65.53938263 -32.31604675 64.32437073 -32.32919312 63.07254028 C-32.33141876 61.77243011 -32.33364441 60.47231995 -32.3359375 59.1328125 C-32.34237372 57.77049625 -32.34910268 56.40818135 -32.35610962 55.04586792 C-32.36805129 52.19639891 -32.37179364 49.34705085 -32.37060547 46.49755859 C-32.37040238 42.86390516 -32.39770672 39.2310347 -32.43214989 35.5975666 C-32.45449419 32.7852326 -32.45844074 29.97308487 -32.45738602 27.16067123 C-32.46086273 25.17550604 -32.48247543 23.19039899 -32.50448608 21.20535278 C-32.46212913 12.79822626 -31.8060403 6.8060403 -25.625 0.625 C-17.57192038 -4.36023976 -8.33358642 -4.40555585 0 0 Z " fill="#252122" transform="translate(145,178)"/>
<path d="M0 0 C12.54 0 25.08 0 38 0 C38 4.29 38 8.58 38 13 C30.08 13 22.16 13 14 13 C14 20.59 14 28.18 14 36 C20.27 36 26.54 36 33 36 C33 39.96 33 43.92 33 48 C26.73 48 20.46 48 14 48 C14 56.91 14 65.82 14 75 C21.92 75 29.84 75 38 75 C38 79.29 38 83.58 38 88 C25.46 88 12.92 88 0 88 C0 58.96 0 29.92 0 0 Z " fill="#292526" transform="translate(247,276)"/>
<path d="M0 0 C11.88 0 23.76 0 36 0 C36 4.29 36 8.58 36 13 C28.74 13 21.48 13 14 13 C14 20.92 14 28.84 14 37 C19.61 37 25.22 37 31 37 C31 41.29 31 45.58 31 50 C25.39 50 19.78 50 14 50 C14 62.54 14 75.08 14 88 C9.38 88 4.76 88 0 88 C0 58.96 0 29.92 0 0 Z " fill="#292627" transform="translate(201,77)"/>
<path d="M0 0 C14.19 0 28.38 0 43 0 C43 4.29 43 8.58 43 13 C38.38 13 33.76 13 29 13 C29 37.75 29 62.5 29 88 C24.38 88 19.76 88 15 88 C15 63.25 15 38.5 15 13 C10.05 13 5.1 13 0 13 C0 8.71 0 4.42 0 0 Z " fill="#2B2728" transform="translate(340,77)"/>
<path d="M0 0 C4.62 0 9.24 0 14 0 C14 29.04 14 58.08 14 88 C9.38 88 4.76 88 0 88 C0 58.96 0 29.92 0 0 Z " fill="#231F20" transform="translate(312,176)"/>
<path d="M0 0 C4.29346886 0.87621813 5.46872177 2.06584386 8.0625 5.625 C8.79685789 9.66514903 8.71517707 13.65377206 8.65625 17.75 C8.65629028 18.92965332 8.65633057 20.10930664 8.65637207 21.32470703 C8.65101611 23.81613499 8.63343048 26.30756248 8.60449219 28.79882812 C8.56265143 32.61120263 8.56342351 36.42180968 8.5703125 40.234375 C8.55981947 42.65626227 8.54688077 45.07814044 8.53125 47.5 C8.53104858 48.63969238 8.53084717 49.77938477 8.53063965 50.95361328 C8.51472778 52.01821777 8.49881592 53.08282227 8.48242188 54.1796875 C8.47400269 55.11280762 8.4655835 56.04592773 8.45690918 57.00732422 C7.97773971 60.18755021 7.00294102 62.0714116 5.0625 64.625 C1.32241287 65.71302535 -0.80828128 66.21932564 -4.3125 64.375 C-7.13815948 61.3319821 -7.07290776 58.36816516 -7.11450195 54.40673828 C-7.12733719 53.34198273 -7.14017242 52.27722717 -7.15339661 51.1802063 C-7.16078354 50.03019135 -7.16817047 48.88017639 -7.17578125 47.6953125 C-7.183853 46.51282928 -7.19192474 45.33034607 -7.20024109 44.11203003 C-7.2140781 41.60871852 -7.22480196 39.10538818 -7.23266602 36.60205078 C-7.24990056 32.77209878 -7.29379436 28.94300503 -7.33789062 25.11328125 C-7.34801563 22.68229802 -7.35653233 20.25130745 -7.36328125 17.8203125 C-7.38078934 16.67434601 -7.39829742 15.52837952 -7.41633606 14.34768677 C-7.39469428 6.42456006 -7.39469428 6.42456006 -5.09448242 2.40185547 C-2.9375 0.625 -2.9375 0.625 0 0 Z " fill="#F4F4F4" transform="translate(180.9375,187.375)"/>
<path d="M0 0 C2.90625 2.01171875 2.90625 2.01171875 5.5 4.6875 C6.81484375 5.99267578 6.81484375 5.99267578 8.15625 7.32421875 C10 10 10 10 9.97680664 12.28125 C8.60826324 16.09032256 6.06820682 18.42694725 3.21484375 21.17578125 C2.63916153 21.74580368 2.06347931 22.31582611 1.47035217 22.90312195 C-0.36473491 24.71587563 -2.21325516 26.51420252 -4.0625 28.3125 C-5.31145959 29.54139078 -6.55951754 30.77119864 -7.80664062 32.00195312 C-10.86074569 35.01203114 -13.9269718 38.00924832 -17 41 C-20.7367462 39.24821418 -23.28322702 37.08053739 -26.25 34.1875 C-27.14203125 33.33542969 -28.0340625 32.48335937 -28.953125 31.60546875 C-31 29 -31 29 -31.44067383 26.69580078 C-30.81699035 22.88044734 -28.64193463 20.88732416 -25.99609375 18.26171875 C-25.47999039 17.73608841 -24.96388702 17.21045807 -24.43214417 16.66889954 C-23.33798009 15.56258643 -22.23728498 14.46269985 -21.13061523 13.36889648 C-19.44619928 11.69613907 -17.79622842 9.99398741 -16.14648438 8.28710938 C-15.07746563 7.21420456 -14.00656028 6.14317555 -12.93359375 5.07421875 C-12.44475204 4.56493332 -11.95591034 4.05564789 -11.45225525 3.53092957 C-7.70894125 -0.09064299 -5.114509 -0.68414714 0 0 Z " fill="#272324" transform="translate(733,160)"/>
<path d="M0 0 C0.680625 -0.01933594 1.36125 -0.03867188 2.0625 -0.05859375 C4.87051158 0.66039309 5.51395232 1.99320867 7 4.4375 C7.38095093 6.97288513 7.38095093 6.97288513 7.38818359 9.86108398 C7.39764008 10.94578476 7.40709656 12.03048553 7.4168396 13.14805603 C7.41076691 14.31478348 7.40469421 15.48151093 7.3984375 16.68359375 C7.40274277 18.48849022 7.40274277 18.48849022 7.40713501 20.32984924 C7.40917634 22.87428254 7.40364175 25.4187315 7.39111328 27.96313477 C7.37507563 31.85664018 7.39095354 35.74910525 7.41015625 39.64257812 C7.40817356 42.11458562 7.40432935 44.58659248 7.3984375 47.05859375 C7.40754654 48.80564857 7.40754654 48.80564857 7.4168396 50.58799744 C7.40738312 51.67585037 7.39792664 52.76370331 7.38818359 53.88452148 C7.38579681 54.8384227 7.38341003 55.79232391 7.38095093 56.77513123 C6.92559792 59.95747711 5.89720677 61.86109356 4 64.4375 C1.80859375 65.03125 1.80859375 65.03125 -0.5625 64.9375 C-1.34753906 64.9271875 -2.13257813 64.916875 -2.94140625 64.90625 C-5 64.4375 -5 64.4375 -7 61.4375 C-7.26069641 58.89501953 -7.26069641 58.89501953 -7.2746582 55.8203125 C-7.28419022 54.66901855 -7.29372223 53.51772461 -7.30354309 52.33154297 C-7.30263168 51.08775879 -7.30172028 49.84397461 -7.30078125 48.5625 C-7.30506638 47.28648926 -7.3093515 46.01047852 -7.31376648 44.69580078 C-7.31951429 41.99562846 -7.32093981 39.29583787 -7.31567383 36.59570312 C-7.30987468 33.13534129 -7.32682179 29.67551392 -7.3500185 26.21524048 C-7.36828838 22.91433077 -7.36457085 19.6134512 -7.36328125 16.3125 C-7.372491 15.06871582 -7.38170074 13.82493164 -7.39118958 12.54345703 C-7.38496078 11.39216309 -7.37873199 10.24086914 -7.37231445 9.0546875 C-7.37294388 8.04003418 -7.3735733 7.02538086 -7.3742218 5.97998047 C-7 3.4375 -7 3.4375 -5.5978241 1.61352539 C-3.61576496 0.15469655 -2.44585739 0.00463231 0 0 Z " fill="#FBFBFB" transform="translate(264,88.5625)"/>
<path d="M0 0 C9 0 9 0 11.5 1.3125 C14.52732058 4.71823565 14.22506574 8.52169446 14.3125 12.875 C14.34988281 14.08929688 14.38726562 15.30359375 14.42578125 16.5546875 C13.92772309 20.58484619 12.83027718 22.15396989 10 25 C8 26 8 26 0 26 C0 17.42 0 8.84 0 0 Z " fill="#EDEDED" transform="translate(53,288)"/>
<path d="M0 0 C9 0 9 0 11.5 1.875 C14.16245586 5.64681247 14.22056947 8.19178118 14.3125 12.8125 C14.34988281 14.03582031 14.38726562 15.25914062 14.42578125 16.51953125 C13.92980695 20.5737799 12.84899719 22.14043139 10 25 C8 26 8 26 0 26 C0 17.42 0 8.84 0 0 Z " fill="#EEEEEE" transform="translate(306,288)"/>
<path d="M0 0 C9 0 9 0 11.53515625 1.53515625 C13.56258789 4.94664789 13.49618992 7.48962442 13.4375 11.4375 C13.43621094 12.73558594 13.43492187 14.03367187 13.43359375 15.37109375 C12.98567544 19.11988754 12.33259721 21.06367175 10 24 C7 25 7 25 0 25 C0 16.75 0 8.5 0 0 Z " fill="#F9F9F9" transform="translate(308,90)"/>
<path d="M0 0 C0.33 0 0.66 0 1 0 C1 17.16 1 34.32 1 52 C-0.9451 49.08235 -1.45276317 47.37462715 -2 44 C-1.34 44 -0.68 44 0 44 C0 29.48 0 14.96 0 0 Z " fill="#B5B4B4" transform="translate(224,276)"/>
</svg>
